<?xml version="1.0" encoding="UTF-8"?>
<svg id="Layer_1" xmlns="http://www.w3.org/2000/svg" viewBox="0 0 1080 883">
  <g>
    <path d="M478.28,759.44h67.63c-2.37,9.48-5.71,18.51-9.95,26.95-20.95,41.88-63.59,69.67-116.76,69.67-27.93,0-53.15-7.48-74.01-20.59-37.44-23.51-60.88-65.15-60.88-114.29,0-76.55,56.85-134.89,134.89-134.89,42.64,0,78.51,17.87,101.85,46.55,11.64,14.29,20.16,31.28,24.85,50.07h-67.63c-.75-1.63-1.56-3.21-2.43-4.75-11.07-19.83-31.13-31.67-56.65-31.67-43.11,0-70.97,31.21-70.97,74.69,0,32.43,15.51,58.04,41.29,68.93,8.77,3.73,18.73,5.75,29.68,5.75,27.49,0,48.67-13.75,59.08-36.41Z" style="fill: #e5446d;"/>
    <path d="M1020.56,47.72C996.57,18.44,959.47.28,916.33.28H190.63l-53.12,79.68-6.33,9.51-41.49-62.24L71.72.28H0v660.69h159.4l9.27,26.95,18.6,54.07h-120.61l-41.39,114.07h66.88l18.57-53.88h97.36l9.29,26.95,9.29,26.93h66.88l-84.6-233.16h-.01l-9.77-26.95H63.17v-142.69h136v102.56h63.17V60.48h653.99c27.23,0,48.95,12.31,60.56,32.64,5.99,10.48,9.29,23.08,9.29,37.21v294.68c0,41.24-28.61,69.85-69.85,69.85h-33.81V99.12h-63.17v98.11h-.03v157.92h.03v399.84h171.68v-60.2h-105.53v-38.64h115.93v-60.2h-115.93v-40.88h30.84c75.8,0,133.03-56.11,133.03-130.05V130.33c0-31.87-10.63-60.44-28.8-82.61ZM199.17,393.05H63.17V88.72l30.64,46.75,34.39,52.47h5.95l3.52-5.37,6.79-10.36,54.72-83.48v304.33Z" style="fill: #e5446d;"/>
  </g>
  <g>
    <path d="M464.64,322.64l-9.77-26.95h-79.52l-82.37,227.01-12.01,33.11h66.89l18.57-53.88h97.36l9.28,26.93,9.29,26.95h66.89l-84.61-233.17ZM387.24,441.73l27.87-81.01,19.96,58.01,7.91,23h-55.73Z" style="fill: #1ddba9;"/>
    <polygon points="784.05 260.39 717.16 260.39 707.88 233.45 698.59 206.51 601.23 206.51 582.65 260.39 362.93 260.39 362.93 99.12 531.63 99.12 531.63 159.32 426.11 159.32 426.11 200.2 537.6 200.2 542.65 186.27 562.27 132.23 574.28 99.12 638.28 99.12 629 126.07 622.04 146.32 677.77 146.32 661.53 99.12 725.53 99.12 735.31 126.07 784.05 260.39" style="fill: #1ddba9;"/>
    <path d="M728.84,759.81c31.96-10.4,52.03-35.29,52.03-76.92h0v-300.24c0-20-4.65-37.08-13.28-50.67-14.76-23.27-41.19-36.29-75.91-36.29h-115.93v411.09c.28,1.01.55,2.03.8,3.05h-.8v75.84l.8.71c-.25,1.03-.52,2.04-.8,3.05v66.61h63.17v-90.29h19.69l18.29,26.95,43.01,63.35h77.29l-68.37-96.24ZM638.92,710.39v-354.49h45.71c20.97,0,32.11,9.12,32.31,26.97.01.17.01.35.01.52v300.25c0,17.84-10.4,26.75-32.32,26.75h-45.71Z" style="fill: #1ddba9;"/>
    <rect x="819.35" y="795.85" width="182.08" height="60.2" style="fill: #1ddba9;"/>
  </g>
  <g>
    <polygon points="576.55 786.39 575.75 786.39 575.75 785.68 576.55 786.39" style="fill: #231f20;"/>
    <path d="M415.11,360.72l-27.87,81.01h39.91l7.92-23-19.96-58.01Z" style="fill: #231f20;"/>
    <path d="M575.75,785.68v3.76c-15.09,54.87-63.16,93.56-125.92,93.56-43.53,0-80.48-18.17-104.64-47.53,20.87,13.11,46.08,20.59,74.01,20.59,53.17,0,95.81-27.79,116.76-69.67,4.24-8.44,7.57-17.47,9.95-26.95l29.84,26.24Z" style="fill: #231f20;"/>
    <path d="M575.75,706.79v3.05h-66.83l-30.64-26.95h67.63c-4.69-18.79-13.21-35.77-24.85-50.07,26.72,16.59,46.08,42.64,54.69,73.96Z" style="fill: #231f20;"/>
    <path d="M475.85,678.15c-7.8-3.08-16.55-4.72-26.03-4.72-43.09,0-70.97,31.21-70.97,74.68,0,15.97,3.76,30.28,10.67,42-25.79-10.89-41.29-36.51-41.29-68.93,0-43.48,27.87-74.69,70.97-74.69,25.52,0,45.59,11.84,56.65,31.67Z" style="fill: #231f20;"/>
    <path d="M576.55,709.84h-.8v-3.05c.28,1.01.55,2.03.8,3.05Z" style="fill: #231f20;"/>
    <path d="M576.55,786.39c-.25,1.03-.52,2.04-.8,3.05v-3.05h.8Z" style="fill: #231f20;"/>
    <path d="M684.63,355.89h-45.71v354.49h30.64v-327.55h45.71c.56,0,1.12,0,1.67.03-.2-17.85-11.33-26.97-32.31-26.97Z" style="fill: #231f20;"/>
    <polygon points="137.51 79.96 131.17 89.47 89.68 27.23 71.72 .28 102.35 27.23 137.51 79.96" style="fill: #231f20;"/>
    <polygon points="1021.67 721.73 1021.67 781.92 849.99 781.92 819.35 754.99 991.03 754.99 991.03 694.79 1021.67 721.73" style="fill: #231f20;"/>
    <polygon points="1032.07 622.88 1032.07 683.08 916.13 683.08 916.13 694.79 885.49 694.79 885.49 656.15 1001.43 656.15 1001.43 595.95 1032.07 622.88" style="fill: #231f20;"/>
    <polygon points="913.16 126.07 913.16 494.87 882.52 494.87 882.52 99.12 913.16 126.07" style="fill: #231f20;"/>
    <polygon points="126.68 687.92 126.68 687.91 93.81 687.91 93.81 687.92 30.64 687.92 0 660.97 159.4 660.97 168.67 687.92 126.68 687.92" style="fill: #231f20;"/>
    <polygon points="638.28 99.12 629.01 126.07 629 126.07 638.28 99.12" style="fill: #f05a28;"/>
    <path d="M575.75,785.68v3.76c.28-1.01.55-2.03.8-3.05l-.8-.71ZM575.75,706.79v3.05h.8c-.25-1.03-.52-2.04-.8-3.05Z" style="fill: #f05a28;"/>
    <polygon points="575.75 571.32 575.75 582.75 513 582.75 482.36 555.81 549.25 555.81 464.64 322.64 454.87 295.69 485.51 322.64 575.75 571.32" style="fill: #231f20;"/>
    <polygon points="668.91 126.07 661.95 146.32 622.04 146.32 629 126.07 629.01 126.07 638.28 99.12 668.91 126.07" style="fill: #231f20;"/>
    <polygon points="638.28 99.12 629.01 126.07 629 126.07 638.28 99.12" style="fill: #231f20;"/>
    <polygon points="562.27 126.07 562.27 132.23 542.65 186.27 456.73 186.27 456.73 200.2 426.11 200.2 426.11 159.32 531.63 159.32 531.63 99.12 562.27 126.07" style="fill: #231f20;"/>
    <polygon points="707.88 233.45 631.87 233.45 613.28 287.33 393.57 287.33 362.93 260.39 582.65 260.39 601.23 206.51 698.59 206.51 707.88 233.45" style="fill: #231f20;"/>
    <polygon points="814.68 287.33 747.8 287.33 717.16 260.39 784.05 260.39 735.31 126.07 725.53 99.12 756.17 126.07 814.68 287.33" style="fill: #231f20;"/>
    <path d="M144.45,172.2l-6.79,10.36-3.52,5.37h-5.95l30.64,26.93h5.95l34.39-52.47v-73.68l-54.72,83.48ZM150.76,202.55h0s.48.41.48.41l-.48-.41Z" style="fill: #231f20;"/>
    <polygon points="150.76 202.53 150.76 202.55 151.24 202.96 150.76 202.53" style="fill: #231f20;"/>
    <polygon points="150.76 202.53 150.76 202.55 151.24 202.96 150.76 202.53" style="fill: #231f20;"/>
    <polygon points="150.76 202.53 150.76 202.55 151.24 202.96 150.76 202.53" style="fill: #231f20;"/>
    <polygon points="150.76 202.53 150.76 202.55 151.24 202.96 150.76 202.53" style="fill: #231f20;"/>
    <polygon points="150.76 202.53 150.76 202.55 151.24 202.96 150.76 202.53" style="fill: #231f20;"/>
    <polygon points="63.17 88.72 63.17 393.05 93.81 393.05 93.81 135.47 63.17 88.72" style="fill: #231f20;"/>
    <polygon points="150.76 202.53 150.76 202.55 151.24 202.96 150.76 202.53" style="fill: #231f20;"/>
    <polygon points="63.17 453.25 63.17 595.95 93.81 595.95 93.81 480.19 199.17 480.19 199.17 453.25 63.17 453.25" style="fill: #231f20;"/>
    <path d="M1020.56,47.72c18.17,22.17,28.8,50.75,28.8,82.61v294.68c0,73.95-57.23,130.05-133.03,130.05h-30.84v40.88h30.64v-13.95h30.84c75.8,0,133.03-56.11,133.03-130.05V157.28c0-47-23.12-86.8-59.44-109.56Z" style="fill: #231f20;"/>
    <polygon points="150.76 202.53 150.76 202.55 151.24 202.96 150.76 202.53" style="fill: #231f20;"/>
    <polygon points="150.76 202.53 150.76 202.55 151.24 202.96 150.76 202.53" style="fill: #231f20;"/>
    <polygon points="150.76 202.53 150.76 202.55 151.24 202.96 150.76 202.53" style="fill: #231f20;"/>
    <polygon points="150.76 202.53 150.76 202.55 151.24 202.96 150.76 202.53" style="fill: #231f20;"/>
    <polygon points="150.76 202.53 150.76 202.55 151.24 202.96 150.76 202.53" style="fill: #231f20;"/>
    <polygon points="150.76 202.53 150.76 202.55 151.24 202.96 150.76 202.53" style="fill: #231f20;"/>
    <path d="M292.97,522.71l-12.01,33.11h66.89l18.57-53.88h97.36l9.28,26.93h-76l-18.57,53.88h-148.68l-30.64-26.93h63.17V60.48h653.99c27.23,0,48.95,12.31,60.56,32.64-8.88-3.71-18.95-5.71-29.92-5.71H292.97v435.29Z" style="fill: #231f20;"/>
    <polygon points="151.24 202.96 150.76 202.55 150.76 202.53 151.24 202.96" style="fill: #231f20;"/>
    <polygon points="151.24 202.96 150.76 202.55 150.76 202.53 151.24 202.96" style="fill: #231f20;"/>
    <path d="M827.85,883h-77.29l-30.64-26.95h77.29l-68.37-96.24c31.96-10.4,52.03-35.29,52.03-76.92h0v-300.24c0-20-4.65-37.08-13.28-50.67,27.84,13.33,43.92,40.4,43.92,77.6v300.25c0,41.61-20.07,66.51-52.03,76.92l68.37,96.24Z" style="fill: #231f20;"/>
    <polygon points="676.91 792.71 669.56 792.71 669.56 883 606.39 883 575.75 856.05 638.92 856.05 638.92 765.76 658.61 765.76 676.91 792.71" style="fill: #231f20;"/>
    <polygon points="1032.07 822.8 1032.07 883 849.99 883 819.35 856.05 1001.43 856.05 1001.43 795.85 1032.07 822.8" style="fill: #231f20;"/>
    <polygon points="324.19 883 257.29 883 226.67 856.05 293.55 856.05 208.95 622.89 199.16 595.95 229.8 622.89 324.19 883" style="fill: #231f20;"/>
    <polygon points="217.37 829.12 141.36 829.12 122.79 883 55.89 883 25.27 856.05 92.15 856.05 110.72 802.17 208.08 802.17 217.37 829.12" style="fill: #231f20;"/>
  </g>
</svg>